<svg xmlns="http://www.w3.org/2000/svg" viewBox="0 0 2392.41 1106.04"><defs><style>.cls-1{fill:#fff;}</style></defs><g id="Linie"><path class="cls-1" d="M647.7,1342.26l346.79.24,345.8.24,194.88.14c16.22,0,31.75-14.27,31-31s-13.62-31-31-31l-346.79-.24-345.8-.24-194.88-.14c-16.22,0-31.75,14.27-31,31s13.62,31,31,31Z" transform="translate(-615.33 -1280.26)"/><path class="cls-1" d="M615.33,1312.13v920.35c0,16.21,14.25,31.75,31,31s31-13.62,31-31V1312.13c0-16.21-14.26-31.75-31-31s-31,13.62-31,31Z" transform="translate(-615.33 -1280.26)"/><path class="cls-1" d="M3007.74,2354.57v-918c0-16.22-14.26-31.75-31-31s-31,13.62-31,31v918c0,16.21,14.26,31.75,31,31s31-13.63,31-31Z" transform="translate(-615.33 -1280.26)"/><path class="cls-1" d="M2975,2328.3H2059.33c-15.17,0-29.71,13.34-29,29s12.74,29,29,29H2975c15.17,0,29.7-13.33,29-29s-12.74-29-29-29Z" transform="translate(-615.33 -1280.26)"/></g><g id="Polonia"><path class="cls-1" d="M1068.18,1458.72q41,0,71.28,9.72t49.86,27.72a113.09,113.09,0,0,1,29.34,43.2q9.72,25.2,9.72,56.16,0,40.68-13.32,74.7a162.58,162.58,0,0,1-38.7,58.5q-25.38,24.48-62.64,38.34t-85.14,13.86H953.7L929.94,1974.6H863l63-515.88Zm-33.12,268.92q30.59,0,54-9.36t39.24-26.1a112.4,112.4,0,0,0,24.12-40,149.83,149.83,0,0,0,8.28-50.58q0-20.88-6.12-37.44a74.19,74.19,0,0,0-18.36-28.26q-12.26-11.7-31-18t-43.56-6.3H986.82l-26.64,216Z" transform="translate(-615.33 -1280.26)"/><path class="cls-1" d="M1339.26,1979.64q-29.88,0-54.72-10.26a120.18,120.18,0,0,1-42.84-29.7q-18-19.44-28.08-47.52t-10.08-64.08q0-46.08,14.4-86.76t39.6-71.1a189.79,189.79,0,0,1,59.22-48.06,156.83,156.83,0,0,1,73.26-17.64q29.88,0,54.72,10.26a120.18,120.18,0,0,1,42.84,29.7q18,19.44,28.08,47.52t10.08,63.72a257,257,0,0,1-14.4,86.4q-14.4,40.68-39.42,71.28a188.25,188.25,0,0,1-59.22,48.42A156.61,156.61,0,0,1,1339.26,1979.64Zm6.12-50a83.62,83.62,0,0,0,47.7-14.4q21.42-14.4,36.72-38.34t23.58-55.26a255.31,255.31,0,0,0,8.28-65.52q0-50.4-20-75.78t-57.42-25.38a85,85,0,0,0-48.06,14.22q-21.42,14.22-36.54,38t-23.4,55.08a255.31,255.31,0,0,0-8.28,65.52q0,50.4,19.8,76.14T1345.38,1929.6Z" transform="translate(-615.33 -1280.26)"/><path class="cls-1" d="M1546.62,1974.6l64.44-530.28h63l-64.44,530.28Z" transform="translate(-615.33 -1280.26)"/><path class="cls-1" d="M1810.13,1979.64q-29.88,0-54.72-10.26a120.18,120.18,0,0,1-42.84-29.7q-18-19.44-28.08-47.52t-10.08-64.08q0-46.08,14.4-86.76t39.6-71.1a189.79,189.79,0,0,1,59.22-48.06,156.83,156.83,0,0,1,73.26-17.64q29.88,0,54.72,10.26a120.18,120.18,0,0,1,42.84,29.7q18,19.44,28.08,47.52t10.08,63.72a257,257,0,0,1-14.4,86.4q-14.4,40.68-39.42,71.28a188.25,188.25,0,0,1-59.22,48.42A156.61,156.61,0,0,1,1810.13,1979.64Zm6.12-50a83.62,83.62,0,0,0,47.7-14.4q21.42-14.4,36.72-38.34t23.58-55.26a255.31,255.31,0,0,0,8.28-65.52q0-50.4-20-75.78t-57.42-25.38a85,85,0,0,0-48.06,14.22q-21.42,14.22-36.54,38t-23.4,55.08a255.31,255.31,0,0,0-8.28,65.52q0,50.4,19.8,76.14T1816.25,1929.6Z" transform="translate(-615.33 -1280.26)"/><path class="cls-1" d="M2107.49,1702.08q29.16-48.24,65.88-72.9t75.6-24.66q23,0,40.5,9.18a73.39,73.39,0,0,1,28.44,26.82q11,17.64,14.94,43.38t0,58.5l-27.36,232.2h-63.72l27.36-232.2q5-43.2-5.4-63.9t-38.52-20.7q-17.28,0-35.1,9.36t-34.38,26.64a221.3,221.3,0,0,0-30.78,41.58,290.74,290.74,0,0,0-24.3,54.18l-20.88,185h-64.08l43.92-365h31.68q21.6,0,21.6,21.6Z" transform="translate(-615.33 -1280.26)"/><polygon class="cls-1" points="1753.16 694.34 1816.16 694.34 1860.08 329.66 1797.08 329.66 1753.16 694.34"/><path class="cls-1" d="M2723.44,1878.48a312,312,0,0,1-27.9,41.76,194.18,194.18,0,0,1-31.68,31.86,137.72,137.72,0,0,1-35.28,20.34,105,105,0,0,1-38.33,7.2q-21.61,0-39.25-8.46a81.79,81.79,0,0,1-30.06-24.84q-12.41-16.38-19.26-40.32t-6.84-54.9a247.21,247.21,0,0,1,8.1-63.18,257,257,0,0,1,58.86-108.36,240.49,240.49,0,0,1,46.62-39.6,221.51,221.51,0,0,1,55.26-25.92,207.32,207.32,0,0,1,61.92-9.18,270.16,270.16,0,0,1,45.54,3.78,190.3,190.3,0,0,1,43.74,13.14l-43.55,352.8h-33.12q-12.61,0-17.11-6.48t-4.5-15.84Zm24.48-223.92a102.93,102.93,0,0,0-15.66-2.34q-7.74-.54-15.3-.54a126,126,0,0,0-41.75,7,149,149,0,0,0-37.81,19.62,168.22,168.22,0,0,0-32,30.06,195,195,0,0,0-24.65,38.34,216.93,216.93,0,0,0-16,44.46,203.31,203.31,0,0,0-5.76,48.42q0,86.76,55.44,86.76,17.64,0,34.56-11t32.22-30.6q15.3-19.62,28.26-46.44a435.91,435.91,0,0,0,23-58.86Z" transform="translate(-615.33 -1280.26)"/></g><g id="Ikona"><rect class="cls-1" x="1794.87" y="201.64" width="69.26" height="86.48" rx="6.75"/><circle class="cls-1" cx="1798.1" cy="219.93" r="23.38"/><circle class="cls-1" cx="1859.04" cy="218.95" r="23.38"/></g><g id="Tekst"><path class="cls-1" d="M1139.38,2154.15l-8,64.61h-20l18.82-154.05h40.52a77.33,77.33,0,0,1,21.23,2.58,41.12,41.12,0,0,1,14.84,7.37,29.52,29.52,0,0,1,8.71,11.61,39.3,39.3,0,0,1,2.85,15.21,52.88,52.88,0,0,1-2.8,17.41,46.36,46.36,0,0,1-8.06,14.46,48.69,48.69,0,0,1-12.69,10.86,57,57,0,0,1-16.77,6.61,18.48,18.48,0,0,1,5.7,6.45l33.22,61.49h-17.85q-5.26,0-7.52-4.3l-29-55.47a9,9,0,0,0-3.22-3.76,11.89,11.89,0,0,0-5.81-1.08Zm9.14-73.64-7.31,59h19.67A46.46,46.46,0,0,0,1177,2137a32.93,32.93,0,0,0,11.77-7.25,30.19,30.19,0,0,0,7.2-11.08,39.4,39.4,0,0,0,2.42-14q0-11.72-7.36-17.89t-22.09-6.19Z" transform="translate(-615.33 -1280.26)"/><path class="cls-1" d="M1314.93,2133.19a29.52,29.52,0,0,1-2.9,13.06q-2.91,6-10.65,10.75t-21.28,8.33q-13.55,3.55-34.83,5.7c-.07.79-.11,1.56-.11,2.31v2.31q0,14.42,6.29,22t19,7.57a35.71,35.71,0,0,0,9.2-1.07,39.78,39.78,0,0,0,7.2-2.63,32.61,32.61,0,0,0,5.59-3.44c1.61-1.26,3.1-2.4,4.46-3.44s2.61-1.92,3.76-2.64a6.5,6.5,0,0,1,3.44-1.07,4.71,4.71,0,0,1,3.55,1.83l4.73,5.91a99.51,99.51,0,0,1-10.7,9.73,62.64,62.64,0,0,1-10.69,6.71,47.58,47.58,0,0,1-11.45,3.93,63.63,63.63,0,0,1-12.85,1.23,43.1,43.1,0,0,1-16.77-3.11,34.85,34.85,0,0,1-12.58-8.87,39.84,39.84,0,0,1-8-13.92,56.07,56.07,0,0,1-2.8-18.28,80.15,80.15,0,0,1,1.78-16.71,77.87,77.87,0,0,1,5.16-15.86,71.06,71.06,0,0,1,8.28-14,55.34,55.34,0,0,1,11.18-11.13,52.63,52.63,0,0,1,13.86-7.37,48.45,48.45,0,0,1,16.29-2.68,39.23,39.23,0,0,1,14.3,2.36,30.61,30.61,0,0,1,9.89,6,24.28,24.28,0,0,1,5.75,8.06A21.48,21.48,0,0,1,1314.93,2133.19Zm-32.9-11.07a28,28,0,0,0-12.47,2.79,33.32,33.32,0,0,0-10.1,7.69,46.89,46.89,0,0,0-7.53,11.5,68.37,68.37,0,0,0-4.83,14.24,208.09,208.09,0,0,0,26.55-4.67q10-2.64,15.37-5.7t7.1-6.61a16.88,16.88,0,0,0,1.72-7.42,10.67,10.67,0,0,0-.86-4,10.79,10.79,0,0,0-2.74-3.82,15.07,15.07,0,0,0-4.9-2.84A20.68,20.68,0,0,0,1282,2122.12Z" transform="translate(-615.33 -1280.26)"/><path class="cls-1" d="M1390.39,2127.28a6.66,6.66,0,0,1-1.72,1.88,3.73,3.73,0,0,1-2.15.59,6,6,0,0,1-3.27-1.18q-1.79-1.18-4.3-2.64a35.47,35.47,0,0,0-6.19-2.68,30.76,30.76,0,0,0-17.63.1,22.13,22.13,0,0,0-6.88,3.71,16.63,16.63,0,0,0-4.46,5.54,15,15,0,0,0-1.56,6.72,10.3,10.3,0,0,0,3.34,8.06,30.57,30.57,0,0,0,8.38,5.21q5.05,2.2,10.91,4.25a55.22,55.22,0,0,1,10.91,5.16,27.73,27.73,0,0,1,8.39,8q3.33,4.83,3.33,12.57A36.14,36.14,0,0,1,1376,2209a41.79,41.79,0,0,1-13.33,8.33,46.63,46.63,0,0,1-17.47,3.12,43.44,43.44,0,0,1-18.43-3.71,38.25,38.25,0,0,1-13.06-9.51l4.73-7.31a6.5,6.5,0,0,1,2-2.15,5.53,5.53,0,0,1,3-.76,5.3,5.3,0,0,1,3.44,1.51c1.14,1,2.58,2.13,4.3,3.39a28.28,28.28,0,0,0,6.5,3.38,27.93,27.93,0,0,0,10,1.51,26.5,26.5,0,0,0,9.51-1.62,22.29,22.29,0,0,0,7.2-4.29,18.3,18.3,0,0,0,4.52-6.29,19.15,19.15,0,0,0,1.56-7.69,11.58,11.58,0,0,0-3.34-8.71,27.1,27.1,0,0,0-8.38-5.37q-5.05-2.16-10.86-4a55.46,55.46,0,0,1-10.86-4.84,26.38,26.38,0,0,1-8.38-7.69q-3.33-4.73-3.33-12.58a33.31,33.31,0,0,1,2.74-13.27,34.3,34.3,0,0,1,7.9-11.34,38.59,38.59,0,0,1,12.52-7.9,44.29,44.29,0,0,1,16.61-3,42.58,42.58,0,0,1,17.26,3.28,39.73,39.73,0,0,1,12.84,8.87Z" transform="translate(-615.33 -1280.26)"/><path class="cls-1" d="M1406.73,2198.23c0-.43,0-1,.06-1.67s.1-1.67.21-3,.27-3,.48-5,.54-4.8,1-8.17l6.77-54.5h-12.14a3.34,3.34,0,0,1-2.31-.81,3.18,3.18,0,0,1-.92-2.52c0-.22,0-.65.11-1.29s.16-1.38.27-2.21.21-1.66.32-2.52.2-1.69.27-2.48l16.77-2.25,8.06-33.65a5.21,5.21,0,0,1,1.61-2.63,4.31,4.31,0,0,1,2.91-1h10.1l-4.73,37.51h28.6l-1.62,13.87h-28.7l-6.56,53.54c-.35,2.93-.62,5.3-.8,7.09s-.32,3.22-.43,4.3-.18,1.83-.22,2.26,0,.75,0,1c0,3.65.84,6.36,2.53,8.11a9.13,9.13,0,0,0,6.93,2.64,13.94,13.94,0,0,0,4.94-.81,21.43,21.43,0,0,0,3.71-1.77c1-.65,1.92-1.24,2.64-1.78a3.33,3.33,0,0,1,1.93-.81,2,2,0,0,1,1.35.43,5.69,5.69,0,0,1,1,1.4l4,9.14a39.1,39.1,0,0,1-11.87,7.26,36.86,36.86,0,0,1-13.5,2.63q-10.42,0-16.44-5.7T1406.73,2198.23Z" transform="translate(-615.33 -1280.26)"/><path class="cls-1" d="M1544.33,2218.76h-9.89q-3.76,0-5.1-1.93a8.08,8.08,0,0,1-1.35-4.74l1.94-21.81a93.09,93.09,0,0,1-8.33,12.38,58.18,58.18,0,0,1-9.46,9.44,41.48,41.48,0,0,1-10.49,6,31.16,31.16,0,0,1-11.39,2.13,26.81,26.81,0,0,1-11.72-2.52,24.37,24.37,0,0,1-9-7.42,36,36,0,0,1-5.76-12,59.83,59.83,0,0,1-2-16.39,74,74,0,0,1,2.42-18.87,76.75,76.75,0,0,1,17.58-32.36,71.35,71.35,0,0,1,13.92-11.82,66.19,66.19,0,0,1,16.5-7.74,61.8,61.8,0,0,1,18.49-2.74,79.92,79.92,0,0,1,13.6,1.14,56.45,56.45,0,0,1,13.06,4Zm-46.87-14.41a19,19,0,0,0,10.32-3.22,39.37,39.37,0,0,0,9.57-8.94,78.32,78.32,0,0,0,8.44-13.6,124.22,124.22,0,0,0,6.93-17.3l4.62-36.83a7.47,7.47,0,0,0-4.67-1.91h-4.57a37.57,37.57,0,0,0-12.47,2.09,44.36,44.36,0,0,0-11.29,5.84,50.48,50.48,0,0,0-9.57,8.95,58.67,58.67,0,0,0-7.36,11.42,64.53,64.53,0,0,0-4.78,13.24,60.28,60.28,0,0,0-1.72,14.42Q1480.91,2204.35,1497.46,2204.35Z" transform="translate(-615.33 -1280.26)"/><path class="cls-1" d="M1596.57,2109.86l-8.17,69.23c-.14,1.44-.26,2.8-.37,4.09s-.16,2.54-.16,3.76q0,8.82,3.28,13.11t10.37,4.3a22.15,22.15,0,0,0,10.16-2.68,40.53,40.53,0,0,0,10.1-7.63,63.21,63.21,0,0,0,9.09-11.94,89.86,89.86,0,0,0,7.31-15.59l6.77-56.65h19l-13.12,108.9h-9.46a7.88,7.88,0,0,1-5.16-1.51,5.63,5.63,0,0,1-1.83-4.62c0-.07,0-.71.11-1.93s.16-2.55.27-4,.22-2.76.32-4,.16-1.86.16-1.93l.76-8.71q-8.71,13.86-19.46,21t-22.15,7.14q-12.14,0-18.86-8.27t-6.72-23.76c0-1.43,0-2.9.11-4.41s.21-3.08.43-4.73l8.17-69.23Z" transform="translate(-615.33 -1280.26)"/><path class="cls-1" d="M1672.36,2218.76l13.12-109H1695a7.29,7.29,0,0,1,4.73,1.4,5.21,5.21,0,0,1,1.72,4.3c0,.29,0,.7,0,1.24s-.07,1.09-.11,1.66-.07,1.08-.11,1.51,0,.68,0,.75l-1.5,19.78q7-15,15.64-23.22t18.22-8.17a22.77,22.77,0,0,1,9,1.94l-3.44,18.38a26.07,26.07,0,0,0-9.78-2q-10.44,0-18.6,10.16t-13.65,30.79l-6,50.53Z" transform="translate(-615.33 -1280.26)"/><path class="cls-1" d="M1817,2218.76h-9.89q-3.76,0-5.11-1.93a8.15,8.15,0,0,1-1.34-4.74l1.94-21.81a93.13,93.13,0,0,1-8.34,12.38,57.39,57.39,0,0,1-9.46,9.44,41.25,41.25,0,0,1-10.48,6,31.16,31.16,0,0,1-11.39,2.13,26.81,26.81,0,0,1-11.72-2.52,24.48,24.48,0,0,1-9-7.42,36.14,36.14,0,0,1-5.75-12,59.83,59.83,0,0,1-2-16.39,74,74,0,0,1,2.42-18.87,76.87,76.87,0,0,1,17.57-32.36,71.71,71.71,0,0,1,13.93-11.82,66.19,66.19,0,0,1,16.5-7.74,61.8,61.8,0,0,1,18.49-2.74,79.92,79.92,0,0,1,13.6,1.14,56.59,56.59,0,0,1,13.06,4Zm-46.87-14.41a19,19,0,0,0,10.32-3.22,39.37,39.37,0,0,0,9.57-8.94,78.32,78.32,0,0,0,8.44-13.6,124.22,124.22,0,0,0,6.93-17.3l4.62-36.83a7.47,7.47,0,0,0-4.67-1.91h-4.57a37.57,37.57,0,0,0-12.47,2.09,44.36,44.36,0,0,0-11.29,5.84,50.48,50.48,0,0,0-9.57,8.95,58.67,58.67,0,0,0-7.36,11.42,64.53,64.53,0,0,0-4.78,13.24,60.29,60.29,0,0,0-1.73,14.42Q1753.52,2204.35,1770.08,2204.35Z" transform="translate(-615.33 -1280.26)"/><path class="cls-1" d="M1838.77,2218.76l13-109h9.56c4.31,0,6.45,2.15,6.45,6.46l-1.61,21.06q8.71-14.4,19.62-21.71t22.63-7.31q12.15,0,18.87,8.17t6.72,23.87c0,1.43,0,2.9-.11,4.4s-.22,3.08-.43,4.73l-8.17,69.34h-19.14l8.17-69.34c.15-1.43.27-2.81.38-4.14s.16-2.59.16-3.81q0-8.82-3.28-13.06t-10.27-4.25a22.39,22.39,0,0,0-10.48,2.8,40.67,40.67,0,0,0-10.26,7.9,64.07,64.07,0,0,0-9.19,12.36,86.68,86.68,0,0,0-7.26,16.18l-6.23,55.36Z" transform="translate(-615.33 -1280.26)"/><path class="cls-1" d="M1954.65,2198.23c0-.43,0-1,.06-1.67s.1-1.67.21-3,.27-3,.48-5,.54-4.8,1-8.17l6.77-54.5H1951a3.32,3.32,0,0,1-2.31-.81,3.18,3.18,0,0,1-.92-2.52c0-.22,0-.65.11-1.29s.16-1.38.27-2.21.21-1.66.32-2.52.2-1.69.27-2.48l16.77-2.25,8.06-33.65a5.21,5.21,0,0,1,1.61-2.63,4.31,4.31,0,0,1,2.91-1h10.1l-4.73,37.51h28.6l-1.62,13.87h-28.7l-6.56,53.54c-.35,2.93-.62,5.3-.8,7.09s-.32,3.22-.43,4.3-.18,1.83-.22,2.26,0,.75,0,1c0,3.65.84,6.36,2.53,8.11a9.13,9.13,0,0,0,6.93,2.64,13.94,13.94,0,0,0,4.94-.81,21.43,21.43,0,0,0,3.71-1.77c1-.65,1.92-1.24,2.64-1.78a3.33,3.33,0,0,1,1.93-.81,2,2,0,0,1,1.35.43,5.69,5.69,0,0,1,1,1.4l4,9.14a39.1,39.1,0,0,1-11.87,7.26,36.86,36.86,0,0,1-13.5,2.63q-10.42,0-16.44-5.7T1954.65,2198.23Z" transform="translate(-615.33 -1280.26)"/><path class="cls-1" d="M2117.19,2063.21a37.74,37.74,0,0,1,13.65,2.36,31.56,31.56,0,0,1,10.54,6.56,29.15,29.15,0,0,1,6.82,9.89,31.18,31.18,0,0,1,2.42,12.36v.65a4.71,4.71,0,0,1-.1.86l-10.86,2c-.36.07-.67.13-.92.16a5.13,5.13,0,0,1-.8,0q-3.12,0-3.87-3.54a32,32,0,0,0-1.94-6.13,19.18,19.18,0,0,0-3.49-5.43,16.91,16.91,0,0,0-5.43-3.92,17.79,17.79,0,0,0-7.63-1.51,23.26,23.26,0,0,0-9.89,2,22.79,22.79,0,0,0-7.58,5.65,25.26,25.26,0,0,0-4.89,8.49,31.3,31.3,0,0,0-1.72,10.48,34.43,34.43,0,0,0,2.52,12.58,52.08,52.08,0,0,0,7.91,13.22l34.61,44a85.74,85.74,0,0,0,7.31-14.67,93,93,0,0,0,4.41-15.22,7.27,7.27,0,0,1,1.4-3.11,3.64,3.64,0,0,1,3-1.19h12.79a100.47,100.47,0,0,1-6.61,24.3,103.36,103.36,0,0,1-12.53,22.25l25.59,32.36H2156a24.89,24.89,0,0,1-3.93-.27,9.54,9.54,0,0,1-5.37-2.63c-.75-.72-1.56-1.58-2.42-2.58L2134,2200.16a81.68,81.68,0,0,1-22.47,14.84,64,64,0,0,1-26.23,5.48,47.4,47.4,0,0,1-16.12-2.63,36.35,36.35,0,0,1-12.58-7.53,33.59,33.59,0,0,1-8.17-11.88,40.66,40.66,0,0,1-2.9-15.69,44.88,44.88,0,0,1,2.85-16,50.89,50.89,0,0,1,7.84-13.81,61.36,61.36,0,0,1,11.72-11.24,77.42,77.42,0,0,1,14.46-8.38,60.64,60.64,0,0,1-6.18-14,48.8,48.8,0,0,1-2-13.65,45,45,0,0,1,3.06-16.61,39.64,39.64,0,0,1,8.71-13.49,41.37,41.37,0,0,1,13.6-9A45.21,45.21,0,0,1,2117.19,2063.21Zm-52.57,117.17a28.57,28.57,0,0,0,1.88,10.7,23,23,0,0,0,5.16,7.9,21.7,21.7,0,0,0,7.8,4.89,28.05,28.05,0,0,0,9.78,1.67,41.64,41.64,0,0,0,19.24-4.62,66.11,66.11,0,0,0,16.56-12.15l-35.8-45.69q-12.36,6.66-18.49,16.29A38.39,38.39,0,0,0,2064.62,2180.38Z" transform="translate(-615.33 -1280.26)"/><path class="cls-1" d="M2217.38,2218.76l19-154.05H2282a77.68,77.68,0,0,1,20.69,2.42,39.65,39.65,0,0,1,14.24,6.88,27.24,27.24,0,0,1,8.28,10.86,36.43,36.43,0,0,1,2.69,14.24,42.8,42.8,0,0,1-2,13.12,38.44,38.44,0,0,1-6,11.5,42,42,0,0,1-9.94,9.35,51.49,51.49,0,0,1-13.92,6.56q13.86,3.12,20.85,10.91t7,19.83a48.8,48.8,0,0,1-3.82,19.52,43.15,43.15,0,0,1-11,15.31,50.41,50.41,0,0,1-17.58,10,71.89,71.89,0,0,1-23.38,3.55Zm28.81-70.41-6.77,54.5h30.31a45,45,0,0,0,14.94-2.26,28.55,28.55,0,0,0,10.75-6.45,26.46,26.46,0,0,0,6.45-10.1,38.67,38.67,0,0,0,2.15-13.33q0-10.22-6.88-16.29t-20.74-6.07Zm1.72-14.19h24.83a45.38,45.38,0,0,0,15.21-2.31,30.1,30.1,0,0,0,10.86-6.45,26,26,0,0,0,6.5-10,36.41,36.41,0,0,0,2.15-12.79q0-11.07-6.66-16.61t-20.64-5.54h-25.59Z" transform="translate(-615.33 -1280.26)"/><path class="cls-1" d="M2416,2218.76h-9.89q-3.77,0-5.11-1.93a8.07,8.07,0,0,1-1.34-4.74l1.93-21.81a93.09,93.09,0,0,1-8.33,12.38,57.78,57.78,0,0,1-9.46,9.44,41.42,41.42,0,0,1-10.48,6,31.25,31.25,0,0,1-11.4,2.13,26.76,26.76,0,0,1-11.71-2.52,24.32,24.32,0,0,1-9-7.42,36.14,36.14,0,0,1-5.75-12,59.83,59.83,0,0,1-2-16.39,73.53,73.53,0,0,1,2.42-18.87,76.87,76.87,0,0,1,17.57-32.36,71.94,71.94,0,0,1,13.92-11.82,66.52,66.52,0,0,1,16.5-7.74,61.84,61.84,0,0,1,18.49-2.74,79.83,79.83,0,0,1,13.6,1.14,56.45,56.45,0,0,1,13.06,4Zm-46.87-14.41a19,19,0,0,0,10.32-3.22,39.52,39.52,0,0,0,9.56-8.94,77.72,77.72,0,0,0,8.44-13.6,123,123,0,0,0,6.94-17.3l4.62-36.83a7.51,7.51,0,0,0-4.68-1.91h-4.57a37.61,37.61,0,0,0-12.47,2.09,44.47,44.47,0,0,0-11.28,5.84,49.89,49.89,0,0,0-9.57,8.95,58.21,58.21,0,0,0-7.36,11.42,64.55,64.55,0,0,0-4.79,13.24,60.28,60.28,0,0,0-1.72,14.42Q2352.61,2204.35,2369.17,2204.35Z" transform="translate(-615.33 -1280.26)"/><path class="cls-1" d="M2437.86,2218.76l13.11-109h9.57a7.32,7.32,0,0,1,4.73,1.4,5.21,5.21,0,0,1,1.72,4.3c0,.29,0,.7,0,1.24s-.08,1.09-.11,1.66-.07,1.08-.11,1.51,0,.68,0,.75l-1.51,19.78q7-15,15.64-23.22T2499,2109a22.77,22.77,0,0,1,9,1.94l-3.44,18.38a26,26,0,0,0-9.78-2q-10.42,0-18.6,10.16t-13.65,30.79l-6,50.53Z" transform="translate(-615.33 -1280.26)"/></g></svg>